<svg xmlns="http://www.w3.org/2000/svg" xmlns:xlink="http://www.w3.org/1999/xlink" width="600" zoomAndPan="magnify" viewBox="0 0 450 119.999999" height="160" preserveAspectRatio="xMidYMid meet" version="1.0"><defs><g/><clipPath id="14824f7c9f"><path d="M 168.136719 9.898438 L 282 9.898438 L 282 55.890625 L 168.136719 55.890625 Z M 168.136719 9.898438 " clip-rule="nonzero"/></clipPath><clipPath id="299247e8ed"><path d="M 257.820312 9.898438 C 271.101562 9.898438 281.863281 20.195312 281.863281 32.894531 C 281.863281 45.59375 271.101562 55.890625 257.820312 55.890625 L 192.179688 55.890625 C 178.898438 55.890625 168.136719 45.59375 168.136719 32.894531 C 168.136719 20.195312 178.898438 9.898438 192.179688 9.898438 Z M 257.820312 9.898438 " clip-rule="nonzero"/></clipPath><clipPath id="b3a7d00101"><path d="M 0.136719 0.898438 L 114 0.898438 L 114 46.890625 L 0.136719 46.890625 Z M 0.136719 0.898438 " clip-rule="nonzero"/></clipPath><clipPath id="fb25c470ed"><path d="M 89.820312 0.898438 C 103.101562 0.898438 113.863281 11.195312 113.863281 23.894531 C 113.863281 36.59375 103.101562 46.890625 89.820312 46.890625 L 24.179688 46.890625 C 10.898438 46.890625 0.136719 36.59375 0.136719 23.894531 C 0.136719 11.195312 10.898438 0.898438 24.179688 0.898438 Z M 89.820312 0.898438 " clip-rule="nonzero"/></clipPath><clipPath id="0fb462036e"><rect x="0" width="114" y="0" height="47"/></clipPath><clipPath id="f6af45a729"><path d="M 169.785156 9.898438 L 226.785156 9.898438 L 226.785156 55.648438 L 169.785156 55.648438 Z M 169.785156 9.898438 " clip-rule="nonzero"/></clipPath><clipPath id="364bacd992"><rect x="0" width="154" y="0" height="50"/></clipPath><clipPath id="56057ed936"><rect x="0" width="71" y="0" height="25"/></clipPath></defs><g clip-path="url(#14824f7c9f)"><g clip-path="url(#299247e8ed)"><g transform="matrix(1, 0, 0, 1, 168, 9)"><g clip-path="url(#0fb462036e)"><g clip-path="url(#b3a7d00101)"><g clip-path="url(#fb25c470ed)"><path fill="#000000" d="M 0.136719 0.898438 L 113.851562 0.898438 L 113.851562 46.890625 L 0.136719 46.890625 Z M 0.136719 0.898438 " fill-opacity="1" fill-rule="nonzero"/></g></g></g></g></g></g><g clip-path="url(#f6af45a729)"><path fill="#fedd59" d="M 190.121094 41.460938 C 189.699219 41.460938 189.292969 41.226562 189.097656 40.820312 C 188.378906 39.332031 188.015625 37.738281 188.015625 36.074219 C 188.015625 30.054688 192.914062 25.15625 198.933594 25.15625 C 201.65625 25.15625 204.261719 26.164062 206.273438 27.992188 C 208.273438 29.808594 209.523438 32.285156 209.796875 34.960938 C 209.859375 35.585938 209.402344 36.144531 208.777344 36.207031 C 208.152344 36.269531 207.59375 35.816406 207.53125 35.191406 C 207.082031 30.769531 203.386719 27.433594 198.933594 27.433594 C 194.167969 27.433594 190.289062 31.308594 190.289062 36.074219 C 190.289062 37.390625 190.578125 38.652344 191.144531 39.828125 C 191.417969 40.394531 191.179688 41.074219 190.613281 41.347656 C 190.457031 41.425781 190.289062 41.460938 190.121094 41.460938 Z M 185.316406 42.589844 C 185.859375 42.273438 186.046875 41.578125 185.730469 41.03125 C 185.210938 40.136719 183.292969 38.65625 181.167969 37.507812 C 180.339844 37.0625 179.335938 36.585938 178.230469 36.195312 C 178.292969 36.171875 178.359375 36.148438 178.421875 36.121094 C 181.972656 34.753906 184.25 33.175781 185.195312 31.433594 C 186.191406 29.59375 185.765625 26.765625 183.929688 23.035156 C 183.707031 22.585938 183.480469 22.148438 183.253906 21.734375 C 183.496094 21.839844 183.746094 21.945312 184 22.050781 C 187.417969 23.445312 190.09375 23.839844 191.960938 23.21875 C 193.898438 22.570312 195.621094 20.320312 197.078125 16.523438 C 197.300781 15.949219 197.496094 15.386719 197.671875 14.851562 C 198.777344 17.574219 200.574219 21.070312 202.863281 22.339844 C 204.640625 23.320312 207.375 22.957031 211.226562 21.226562 C 211.804688 20.964844 212.359375 20.695312 212.878906 20.429688 C 212.691406 20.847656 212.5 21.292969 212.316406 21.746094 C 210.121094 27.117188 210.886719 28.753906 211.136719 29.292969 C 211.382812 29.816406 212.128906 31.417969 217.636719 33.652344 C 218.347656 33.941406 219.042969 34.199219 219.675781 34.425781 L 216.027344 35.894531 C 215.445312 36.128906 215.160156 36.792969 215.394531 37.375 C 215.628906 37.957031 216.292969 38.242188 216.875 38.007812 L 223.425781 35.375 C 223.875 35.195312 224.160156 34.746094 224.136719 34.261719 C 224.113281 33.777344 223.785156 33.359375 223.316406 33.226562 C 223.292969 33.21875 220.957031 32.542969 218.492188 31.542969 C 214.152344 29.785156 213.34375 28.640625 213.199219 28.332031 C 212.558594 26.953125 214.429688 21.980469 216.53125 18.160156 C 216.78125 17.703125 216.691406 17.132812 216.308594 16.777344 C 215.925781 16.421875 215.351562 16.371094 214.914062 16.65625 C 214.894531 16.671875 212.785156 18.03125 210.292969 19.152344 C 207.316406 20.492188 205.011719 20.929688 203.96875 20.351562 C 202.804688 19.707031 201.480469 17.824219 200.242188 15.050781 C 199.242188 12.8125 198.640625 10.765625 198.632812 10.742188 C 198.488281 10.242188 198.015625 9.902344 197.5 9.925781 C 196.976562 9.945312 196.535156 10.316406 196.425781 10.828125 C 195.675781 14.367188 193.601562 20.277344 191.242188 21.0625 C 188.492188 21.980469 182.730469 19.105469 180.742188 17.917969 C 180.277344 17.644531 179.6875 17.730469 179.320312 18.125 C 178.957031 18.523438 178.917969 19.121094 179.234375 19.558594 C 179.246094 19.578125 180.707031 21.628906 181.902344 24.066406 C 183.324219 26.960938 183.796875 29.25 183.199219 30.351562 C 181.796875 32.9375 175.398438 34.882812 173.054688 35.414062 C 172.476562 35.546875 172.09375 36.097656 172.179688 36.6875 C 172.261719 37.273438 172.785156 37.695312 173.375 37.660156 C 175.257812 37.542969 177.625 38.195312 180.039062 39.488281 C 182.222656 40.65625 183.570312 41.867188 183.765625 42.179688 C 183.980469 42.542969 184.359375 42.742188 184.75 42.742188 C 184.941406 42.742188 185.136719 42.691406 185.316406 42.589844 Z M 198.621094 52.816406 C 206.554688 49.222656 213.519531 48.269531 218.757812 50.054688 C 221.871094 51.113281 223.730469 52.96875 224.277344 53.796875 C 224.574219 54.257812 225.15625 54.441406 225.664062 54.238281 C 226.171875 54.03125 226.460938 53.492188 226.351562 52.957031 C 226.273438 52.582031 224.40625 43.746094 216.847656 39.75 C 211.707031 37.027344 205.265625 37.253906 197.710938 40.417969 C 191.511719 43.019531 182.824219 45.820312 176.640625 44.40625 C 173.207031 43.617188 172.171875 41.890625 172.085938 41.734375 C 171.832031 41.183594 171.195312 40.945312 170.632812 41.175781 C 170.066406 41.402344 169.789062 42.058594 170 42.632812 C 170.117188 42.96875 173.050781 50.835938 180.777344 54.089844 C 182.933594 55 185.238281 55.453125 187.679688 55.453125 C 191.074219 55.453125 194.734375 54.574219 198.621094 52.816406 Z M 175.789062 46.542969 C 181.242188 47.929688 188.914062 46.578125 198.589844 42.519531 C 205.476562 39.632812 211.257812 39.371094 215.765625 41.75 C 219.308594 43.621094 221.449219 46.8125 222.671875 49.386719 C 221.839844 48.875 220.847656 48.375 219.679688 47.964844 C 217.066406 47.039062 214.09375 46.710938 210.84375 46.988281 C 206.855469 47.332031 202.425781 48.59375 197.679688 50.738281 C 191.613281 53.484375 186.230469 53.910156 181.679688 52 C 178.425781 50.632812 176.105469 48.273438 174.570312 46.167969 C 174.949219 46.304688 175.351562 46.429688 175.789062 46.542969 Z M 175.789062 46.542969 " fill-opacity="1" fill-rule="nonzero"/></g><g transform="matrix(1, 0, 0, 1, 149, 46)"><g clip-path="url(#364bacd992)"><g fill="#000000" fill-opacity="1"><g transform="translate(1.892084, 37.388559)"><g><path d="M 18.703125 -7.25 C 18.703125 -4.894531 17.851562 -3.035156 16.15625 -1.671875 C 14.457031 -0.316406 12.097656 0.359375 9.078125 0.359375 C 6.285156 0.359375 3.816406 -0.164062 1.671875 -1.21875 L 1.671875 -6.359375 C 3.441406 -5.578125 4.9375 -5.023438 6.15625 -4.703125 C 7.375 -4.378906 8.488281 -4.21875 9.5 -4.21875 C 10.71875 -4.21875 11.648438 -4.445312 12.296875 -4.90625 C 12.953125 -5.375 13.28125 -6.066406 13.28125 -6.984375 C 13.28125 -7.492188 13.132812 -7.945312 12.84375 -8.34375 C 12.5625 -8.75 12.140625 -9.132812 11.578125 -9.5 C 11.023438 -9.875 9.898438 -10.46875 8.203125 -11.28125 C 6.609375 -12.03125 5.410156 -12.75 4.609375 -13.4375 C 3.804688 -14.125 3.164062 -14.925781 2.6875 -15.84375 C 2.21875 -16.757812 1.984375 -17.832031 1.984375 -19.0625 C 1.984375 -21.375 2.765625 -23.191406 4.328125 -24.515625 C 5.898438 -25.835938 8.066406 -26.5 10.828125 -26.5 C 12.179688 -26.5 13.472656 -26.335938 14.703125 -26.015625 C 15.941406 -25.691406 17.234375 -25.238281 18.578125 -24.65625 L 16.796875 -20.359375 C 15.398438 -20.921875 14.242188 -21.316406 13.328125 -21.546875 C 12.421875 -21.773438 11.53125 -21.890625 10.65625 -21.890625 C 9.601562 -21.890625 8.796875 -21.644531 8.234375 -21.15625 C 7.671875 -20.664062 7.390625 -20.03125 7.390625 -19.25 C 7.390625 -18.757812 7.503906 -18.332031 7.734375 -17.96875 C 7.960938 -17.601562 8.320312 -17.25 8.8125 -16.90625 C 9.3125 -16.570312 10.484375 -15.960938 12.328125 -15.078125 C 14.765625 -13.910156 16.4375 -12.738281 17.34375 -11.5625 C 18.25 -10.394531 18.703125 -8.957031 18.703125 -7.25 Z M 18.703125 -7.25 "/></g></g></g><g fill="#000000" fill-opacity="1"><g transform="translate(22.042242, 37.388559)"><g><path d="M 17.015625 0 L 16.28125 -2.5625 L 15.984375 -2.5625 C 15.398438 -1.625 14.570312 -0.898438 13.5 -0.390625 C 12.4375 0.109375 11.21875 0.359375 9.84375 0.359375 C 7.5 0.359375 5.726562 -0.265625 4.53125 -1.515625 C 3.34375 -2.773438 2.75 -4.585938 2.75 -6.953125 L 2.75 -19.96875 L 8.203125 -19.96875 L 8.203125 -8.3125 C 8.203125 -6.863281 8.457031 -5.78125 8.96875 -5.0625 C 9.476562 -4.34375 10.296875 -3.984375 11.421875 -3.984375 C 12.941406 -3.984375 14.039062 -4.492188 14.71875 -5.515625 C 15.394531 -6.535156 15.734375 -8.222656 15.734375 -10.578125 L 15.734375 -19.96875 L 21.1875 -19.96875 L 21.1875 0 Z M 17.015625 0 "/></g></g></g><g fill="#000000" fill-opacity="1"><g transform="translate(46.086668, 37.388559)"><g><path d="M 21.296875 0 L 15.84375 0 L 15.84375 -11.671875 C 15.84375 -13.109375 15.585938 -14.1875 15.078125 -14.90625 C 14.566406 -15.625 13.75 -15.984375 12.625 -15.984375 C 11.101562 -15.984375 10.003906 -15.472656 9.328125 -14.453125 C 8.648438 -13.441406 8.3125 -11.757812 8.3125 -9.40625 L 8.3125 0 L 2.859375 0 L 2.859375 -19.96875 L 7.015625 -19.96875 L 7.75 -17.421875 L 8.0625 -17.421875 C 8.664062 -18.390625 9.5 -19.117188 10.5625 -19.609375 C 11.632812 -20.109375 12.847656 -20.359375 14.203125 -20.359375 C 16.523438 -20.359375 18.285156 -19.726562 19.484375 -18.46875 C 20.691406 -17.207031 21.296875 -15.394531 21.296875 -13.03125 Z M 21.296875 0 "/></g></g></g><g fill="#000000" fill-opacity="1"><g transform="translate(70.131094, 37.388559)"><g><path d="M 3.28125 -26.125 L 11.421875 -26.125 C 15.117188 -26.125 17.804688 -25.59375 19.484375 -24.53125 C 21.160156 -23.476562 22 -21.804688 22 -19.515625 C 22 -17.953125 21.628906 -16.671875 20.890625 -15.671875 C 20.160156 -14.671875 19.1875 -14.066406 17.96875 -13.859375 L 17.96875 -13.6875 C 19.625 -13.320312 20.816406 -12.628906 21.546875 -11.609375 C 22.285156 -10.597656 22.65625 -9.253906 22.65625 -7.578125 C 22.65625 -5.191406 21.796875 -3.332031 20.078125 -2 C 18.359375 -0.664062 16.019531 0 13.0625 0 L 3.28125 0 Z M 8.828125 -15.78125 L 12.046875 -15.78125 C 13.546875 -15.78125 14.628906 -16.007812 15.296875 -16.46875 C 15.972656 -16.9375 16.3125 -17.707031 16.3125 -18.78125 C 16.3125 -19.78125 15.941406 -20.492188 15.203125 -20.921875 C 14.472656 -21.359375 13.316406 -21.578125 11.734375 -21.578125 L 8.828125 -21.578125 Z M 8.828125 -11.375 L 8.828125 -4.578125 L 12.4375 -4.578125 C 13.957031 -4.578125 15.082031 -4.867188 15.8125 -5.453125 C 16.539062 -6.035156 16.90625 -6.925781 16.90625 -8.125 C 16.90625 -10.289062 15.351562 -11.375 12.25 -11.375 Z M 8.828125 -11.375 "/></g></g></g><g fill="#000000" fill-opacity="1"><g transform="translate(94.711428, 37.388559)"><g><path d="M 0 -19.96875 L 5.96875 -19.96875 L 9.734375 -8.734375 C 10.054688 -7.753906 10.28125 -6.597656 10.40625 -5.265625 L 10.5 -5.265625 C 10.632812 -6.492188 10.894531 -7.648438 11.28125 -8.734375 L 14.96875 -19.96875 L 20.8125 -19.96875 L 12.359375 2.5625 C 11.585938 4.644531 10.484375 6.203125 9.046875 7.234375 C 7.609375 8.273438 5.929688 8.796875 4.015625 8.796875 C 3.078125 8.796875 2.15625 8.691406 1.25 8.484375 L 1.25 4.15625 C 1.90625 4.3125 2.617188 4.390625 3.390625 4.390625 C 4.359375 4.390625 5.203125 4.09375 5.921875 3.5 C 6.640625 2.914062 7.203125 2.03125 7.609375 0.84375 L 7.9375 -0.140625 Z M 0 -19.96875 "/></g></g></g><g fill="#000000" fill-opacity="1"><g transform="translate(115.522539, 37.388559)"><g><path d="M 11.28125 -3.984375 C 12.226562 -3.984375 13.367188 -4.191406 14.703125 -4.609375 L 14.703125 -0.546875 C 13.347656 0.0546875 11.679688 0.359375 9.703125 0.359375 C 7.523438 0.359375 5.9375 -0.191406 4.9375 -1.296875 C 3.945312 -2.398438 3.453125 -4.050781 3.453125 -6.25 L 3.453125 -15.890625 L 0.84375 -15.890625 L 0.84375 -18.1875 L 3.84375 -20.015625 L 5.40625 -24.234375 L 8.890625 -24.234375 L 8.890625 -19.96875 L 14.484375 -19.96875 L 14.484375 -15.890625 L 8.890625 -15.890625 L 8.890625 -6.25 C 8.890625 -5.476562 9.109375 -4.90625 9.546875 -4.53125 C 9.984375 -4.164062 10.5625 -3.984375 11.28125 -3.984375 Z M 11.28125 -3.984375 "/></g></g></g><g fill="#000000" fill-opacity="1"><g transform="translate(131.403293, 37.388559)"><g><path d="M 11.125 -16.46875 C 9.976562 -16.46875 9.078125 -16.101562 8.421875 -15.375 C 7.765625 -14.644531 7.390625 -13.601562 7.296875 -12.25 L 14.9375 -12.25 C 14.914062 -13.601562 14.5625 -14.644531 13.875 -15.375 C 13.195312 -16.101562 12.28125 -16.46875 11.125 -16.46875 Z M 11.90625 0.359375 C 8.6875 0.359375 6.171875 -0.523438 4.359375 -2.296875 C 2.546875 -4.078125 1.640625 -6.59375 1.640625 -9.84375 C 1.640625 -13.1875 2.476562 -15.773438 4.15625 -17.609375 C 5.832031 -19.441406 8.144531 -20.359375 11.09375 -20.359375 C 13.914062 -20.359375 16.113281 -19.550781 17.6875 -17.9375 C 19.257812 -16.332031 20.046875 -14.113281 20.046875 -11.28125 L 20.046875 -8.625 L 7.171875 -8.625 C 7.222656 -7.082031 7.675781 -5.875 8.53125 -5 C 9.394531 -4.132812 10.601562 -3.703125 12.15625 -3.703125 C 13.351562 -3.703125 14.488281 -3.828125 15.5625 -4.078125 C 16.632812 -4.328125 17.753906 -4.722656 18.921875 -5.265625 L 18.921875 -1.046875 C 17.972656 -0.578125 16.953125 -0.226562 15.859375 0 C 14.773438 0.238281 13.457031 0.359375 11.90625 0.359375 Z M 11.90625 0.359375 "/></g></g></g></g></g><g transform="matrix(1, 0, 0, 1, 176, 84)"><g clip-path="url(#56057ed936)"><g fill="#000000" fill-opacity="1"><g transform="translate(0.977156, 18.883243)"><g><path d="M 0.890625 -3.125 L 2.265625 -3.125 L 2.46875 -1.4375 C 2.601562 -1.382812 2.804688 -1.34375 3.078125 -1.3125 C 3.359375 -1.28125 3.640625 -1.265625 3.921875 -1.265625 C 4.765625 -1.265625 5.375 -1.390625 5.75 -1.640625 C 6.132812 -1.898438 6.328125 -2.289062 6.328125 -2.8125 C 6.328125 -3.15625 6.191406 -3.429688 5.921875 -3.640625 C 5.660156 -3.847656 5.328125 -4.023438 4.921875 -4.171875 C 4.523438 -4.316406 4.085938 -4.457031 3.609375 -4.59375 C 3.140625 -4.738281 2.703125 -4.925781 2.296875 -5.15625 C 1.890625 -5.382812 1.550781 -5.675781 1.28125 -6.03125 C 1.019531 -6.394531 0.890625 -6.878906 0.890625 -7.484375 C 0.890625 -8.453125 1.210938 -9.191406 1.859375 -9.703125 C 2.515625 -10.222656 3.382812 -10.492188 4.46875 -10.515625 C 4.914062 -10.503906 5.375 -10.46875 5.84375 -10.40625 C 6.320312 -10.351562 6.8125 -10.25 7.3125 -10.09375 L 7.796875 -9.9375 L 7.734375 -7.3125 L 6.46875 -7.3125 L 6.15625 -8.828125 C 6.050781 -8.867188 5.847656 -8.914062 5.546875 -8.96875 C 5.253906 -9.03125 4.9375 -9.0625 4.59375 -9.0625 C 4.363281 -9.0625 4.144531 -9.039062 3.9375 -9 C 3.726562 -8.957031 3.539062 -8.890625 3.375 -8.796875 C 3.21875 -8.710938 3.085938 -8.582031 2.984375 -8.40625 C 2.890625 -8.238281 2.84375 -8.035156 2.84375 -7.796875 C 2.84375 -7.421875 2.972656 -7.125 3.234375 -6.90625 C 3.503906 -6.6875 3.84375 -6.5 4.25 -6.34375 C 4.65625 -6.195312 5.09375 -6.050781 5.5625 -5.90625 C 6.039062 -5.757812 6.476562 -5.570312 6.875 -5.34375 C 7.28125 -5.113281 7.613281 -4.820312 7.875 -4.46875 C 8.144531 -4.125 8.28125 -3.664062 8.28125 -3.09375 C 8.28125 -2.550781 8.160156 -2.070312 7.921875 -1.65625 C 7.691406 -1.238281 7.378906 -0.890625 6.984375 -0.609375 C 6.585938 -0.328125 6.125 -0.117188 5.59375 0.015625 C 5.070312 0.148438 4.515625 0.21875 3.921875 0.21875 C 3.691406 0.21875 3.457031 0.207031 3.21875 0.1875 C 2.976562 0.164062 2.738281 0.140625 2.5 0.109375 C 2.269531 0.078125 2.054688 0.0390625 1.859375 0 C 1.660156 -0.0390625 1.492188 -0.078125 1.359375 -0.109375 L 0.921875 -0.234375 Z M 0.890625 -3.125 "/></g></g></g><g fill="#000000" fill-opacity="1"><g transform="translate(10.152083, 18.883243)"><g><path d="M 4.28125 -13.078125 L 4.28125 -10.234375 L 7.109375 -10.234375 L 7.109375 -8.765625 L 4.28125 -8.765625 L 4.28125 -2.515625 C 4.28125 -1.722656 4.609375 -1.328125 5.265625 -1.328125 C 5.679688 -1.328125 6.1875 -1.488281 6.78125 -1.8125 L 7.3125 -0.78125 C 6.425781 -0.132812 5.515625 0.1875 4.578125 0.1875 C 3.910156 0.1875 3.367188 -0.0234375 2.953125 -0.453125 C 2.546875 -0.890625 2.34375 -1.613281 2.34375 -2.625 L 2.34375 -8.765625 L 0.390625 -8.765625 L 0.390625 -10.03125 L 2.34375 -10.234375 L 2.34375 -12.6875 Z M 4.28125 -13.078125 "/></g></g></g><g fill="#000000" fill-opacity="1"><g transform="translate(17.846547, 18.883243)"><g><path d="M 10.515625 -10.328125 L 10.515625 -1.5625 L 12.171875 -1.171875 L 12.171875 -0.09375 L 8.96875 0 L 8.765625 -1.359375 C 8.222656 -0.878906 7.609375 -0.5 6.921875 -0.21875 C 6.234375 0.0507812 5.644531 0.1875 5.15625 0.1875 C 4.125 0.1875 3.347656 -0.113281 2.828125 -0.71875 C 2.304688 -1.332031 2.046875 -2.191406 2.046875 -3.296875 L 2.046875 -8.765625 L 0.390625 -9.15625 L 0.390625 -10.234375 L 4 -10.328125 L 4 -3.484375 C 4 -2.796875 4.132812 -2.285156 4.40625 -1.953125 C 4.675781 -1.628906 5.09375 -1.46875 5.65625 -1.46875 C 6.207031 -1.46875 6.71875 -1.59375 7.1875 -1.84375 C 7.65625 -2.101562 8 -2.359375 8.21875 -2.609375 L 8.578125 -3 L 8.578125 -8.765625 L 6.921875 -9.15625 L 6.921875 -10.234375 Z M 10.515625 -10.328125 "/></g></g></g><g fill="#000000" fill-opacity="1"><g transform="translate(30.508326, 18.883243)"><g><path d="M 9.84375 -15 L 9.84375 -1.5625 L 11.5 -1.171875 L 11.5 -0.09375 L 8.1875 0 L 8.03125 -1.109375 C 7.15625 -0.242188 6.082031 0.1875 4.8125 0.1875 C 3.550781 0.1875 2.578125 -0.257812 1.890625 -1.15625 C 1.210938 -2.0625 0.875 -3.3125 0.875 -4.90625 C 0.875 -6.613281 1.304688 -7.972656 2.171875 -8.984375 C 3.046875 -10.003906 4.335938 -10.515625 6.046875 -10.515625 C 6.679688 -10.515625 7.296875 -10.410156 7.890625 -10.203125 L 7.890625 -13.4375 L 6.234375 -13.828125 L 6.234375 -14.90625 Z M 7.890625 -2.828125 L 7.890625 -8.578125 C 7.429688 -8.835938 6.75 -8.96875 5.84375 -8.96875 C 3.894531 -8.96875 2.921875 -7.664062 2.921875 -5.0625 C 2.921875 -3.914062 3.117188 -3.007812 3.515625 -2.34375 C 3.910156 -1.6875 4.523438 -1.359375 5.359375 -1.359375 C 5.992188 -1.359375 6.53125 -1.53125 6.96875 -1.875 C 7.382812 -2.207031 7.691406 -2.523438 7.890625 -2.828125 Z M 7.890625 -2.828125 "/></g></g></g><g fill="#000000" fill-opacity="1"><g transform="translate(42.488315, 18.883243)"><g><path d="M 3.3125 -14.90625 C 4.15625 -14.90625 4.578125 -14.414062 4.578125 -13.4375 C 4.578125 -13.039062 4.429688 -12.726562 4.140625 -12.5 C 3.859375 -12.28125 3.554688 -12.171875 3.234375 -12.171875 C 2.878906 -12.171875 2.59375 -12.289062 2.375 -12.53125 C 2.15625 -12.78125 2.046875 -13.117188 2.046875 -13.546875 C 2.046875 -13.972656 2.164062 -14.304688 2.40625 -14.546875 C 2.644531 -14.785156 2.945312 -14.90625 3.3125 -14.90625 Z M 4.390625 -10.328125 L 4.390625 -1.5625 L 5.84375 -1.078125 L 5.84375 0 L 0.78125 0 L 0.78125 -1.078125 L 2.4375 -1.5625 L 2.4375 -8.765625 L 0.78125 -9.15625 L 0.78125 -10.234375 Z M 4.390625 -10.328125 "/></g></g></g><g fill="#000000" fill-opacity="1"><g transform="translate(49.014007, 18.883243)"><g><path d="M 0.78125 -5 C 0.78125 -5.832031 0.898438 -6.585938 1.140625 -7.265625 C 1.378906 -7.953125 1.71875 -8.535156 2.15625 -9.015625 C 2.601562 -9.492188 3.128906 -9.863281 3.734375 -10.125 C 4.335938 -10.382812 5.003906 -10.515625 5.734375 -10.515625 C 7.179688 -10.515625 8.304688 -10.050781 9.109375 -9.125 C 9.921875 -8.207031 10.328125 -6.929688 10.328125 -5.296875 C 10.328125 -4.492188 10.207031 -3.753906 9.96875 -3.078125 C 9.738281 -2.410156 9.410156 -1.832031 8.984375 -1.34375 C 8.566406 -0.863281 8.054688 -0.488281 7.453125 -0.21875 C 6.847656 0.0507812 6.175781 0.1875 5.4375 0.1875 C 3.957031 0.1875 2.8125 -0.25 2 -1.125 C 1.1875 -2.007812 0.78125 -3.300781 0.78125 -5 Z M 5.65625 -8.96875 C 3.769531 -8.96875 2.828125 -7.695312 2.828125 -5.15625 C 2.828125 -2.625 3.734375 -1.359375 5.546875 -1.359375 C 6.492188 -1.359375 7.1875 -1.679688 7.625 -2.328125 C 8.0625 -2.984375 8.28125 -3.960938 8.28125 -5.265625 C 8.28125 -7.734375 7.40625 -8.96875 5.65625 -8.96875 Z M 5.65625 -8.96875 "/></g></g></g><g fill="#000000" fill-opacity="1"><g transform="translate(60.11741, 18.883243)"><g><path d="M 0.890625 -3.125 L 2.265625 -3.125 L 2.46875 -1.4375 C 2.601562 -1.382812 2.804688 -1.34375 3.078125 -1.3125 C 3.359375 -1.28125 3.640625 -1.265625 3.921875 -1.265625 C 4.765625 -1.265625 5.375 -1.390625 5.75 -1.640625 C 6.132812 -1.898438 6.328125 -2.289062 6.328125 -2.8125 C 6.328125 -3.15625 6.191406 -3.429688 5.921875 -3.640625 C 5.660156 -3.847656 5.328125 -4.023438 4.921875 -4.171875 C 4.523438 -4.316406 4.085938 -4.457031 3.609375 -4.59375 C 3.140625 -4.738281 2.703125 -4.925781 2.296875 -5.15625 C 1.890625 -5.382812 1.550781 -5.675781 1.28125 -6.03125 C 1.019531 -6.394531 0.890625 -6.878906 0.890625 -7.484375 C 0.890625 -8.453125 1.210938 -9.191406 1.859375 -9.703125 C 2.515625 -10.222656 3.382812 -10.492188 4.46875 -10.515625 C 4.914062 -10.503906 5.375 -10.46875 5.84375 -10.40625 C 6.320312 -10.351562 6.8125 -10.25 7.3125 -10.09375 L 7.796875 -9.9375 L 7.734375 -7.3125 L 6.46875 -7.3125 L 6.15625 -8.828125 C 6.050781 -8.867188 5.847656 -8.914062 5.546875 -8.96875 C 5.253906 -9.03125 4.9375 -9.0625 4.59375 -9.0625 C 4.363281 -9.0625 4.144531 -9.039062 3.9375 -9 C 3.726562 -8.957031 3.539062 -8.890625 3.375 -8.796875 C 3.21875 -8.710938 3.085938 -8.582031 2.984375 -8.40625 C 2.890625 -8.238281 2.84375 -8.035156 2.84375 -7.796875 C 2.84375 -7.421875 2.972656 -7.125 3.234375 -6.90625 C 3.503906 -6.6875 3.84375 -6.5 4.25 -6.34375 C 4.65625 -6.195312 5.09375 -6.050781 5.5625 -5.90625 C 6.039062 -5.757812 6.476562 -5.570312 6.875 -5.34375 C 7.28125 -5.113281 7.613281 -4.820312 7.875 -4.46875 C 8.144531 -4.125 8.28125 -3.664062 8.28125 -3.09375 C 8.28125 -2.550781 8.160156 -2.070312 7.921875 -1.65625 C 7.691406 -1.238281 7.378906 -0.890625 6.984375 -0.609375 C 6.585938 -0.328125 6.125 -0.117188 5.59375 0.015625 C 5.070312 0.148438 4.515625 0.21875 3.921875 0.21875 C 3.691406 0.21875 3.457031 0.207031 3.21875 0.1875 C 2.976562 0.164062 2.738281 0.140625 2.5 0.109375 C 2.269531 0.078125 2.054688 0.0390625 1.859375 0 C 1.660156 -0.0390625 1.492188 -0.078125 1.359375 -0.109375 L 0.921875 -0.234375 Z M 0.890625 -3.125 "/></g></g></g></g></g></svg>